<svg width="30" height="30" viewBox="0 0 30 30" fill="none" xmlns="http://www.w3.org/2000/svg">
<g clip-path="url(#clip0_9_40)">
<path d="M13.2304 27.4336L13.084 27.2988L2.81835 17.7656C1.01953 16.0957 0 13.752 0 11.2969V11.1035C0 6.97852 2.92968 3.43947 6.98436 2.66603C9.29295 2.22072 11.6543 2.75392 13.5351 4.07814C14.0625 4.45314 14.5547 4.88673 15 5.38478C15.2461 5.10353 15.5097 4.84572 15.791 4.60548C16.0078 4.41798 16.2304 4.2422 16.4648 4.07814C18.3457 2.75392 20.707 2.22072 23.0156 2.66017C27.0703 3.43361 30 6.97852 30 11.1035V11.2969C30 13.752 28.9804 16.0957 27.1816 17.7656L16.916 27.2988L16.7695 27.4336C16.289 27.8789 15.6562 28.1308 15 28.1308C14.3437 28.1308 13.7109 27.8847 13.2304 27.4336ZM14.0097 8.4961C13.9863 8.47852 13.9687 8.45508 13.9511 8.43165L12.9082 7.25977L12.9023 7.25392C11.5488 5.73634 9.50389 5.04493 7.51171 5.42579C4.78124 5.94728 2.8125 8.32618 2.8125 11.1035V11.2969C2.8125 12.9668 3.50976 14.5664 4.73437 15.7031L15 25.2363L25.2656 15.7031C26.4902 14.5664 27.1875 12.9668 27.1875 11.2969V11.1035C27.1875 8.33204 25.2187 5.94728 22.4941 5.42579C20.5019 5.04493 18.4511 5.7422 17.1035 7.25392C17.1035 7.25392 17.1035 7.25392 17.0976 7.25977C17.0918 7.26563 17.0976 7.25977 17.0918 7.26563L16.0488 8.43751C16.0312 8.46094 16.0078 8.47852 15.9902 8.50196C15.7265 8.76563 15.3691 8.91212 15 8.91212C14.6308 8.91212 14.2734 8.76563 14.0097 8.50196V8.4961Z" fill="#366DB3"/>
</g>
<defs>
<clipPath id="clip0_9_40">
<rect width="29.8868" height="29.8868" fill="white" transform="scale(1.00379)"/>
</clipPath>
</defs>
</svg>
